<?xml version="1.0" encoding="UTF-8"?>
<svg id="Layer_1" data-name="Layer 1" xmlns="http://www.w3.org/2000/svg" viewBox="0 0 578.4 331.65">
  <defs>
    <style>
      .cls-1 {
        fill: #231f20;
      }
    </style>
  </defs>
  <path class="cls-1" d="M0,6.75h50.08v7.88h-3.84c-3.63,0-6.25.5-7.88,1.51-1.63,1.01-2.81,2.44-3.56,4.29s-1.13,5.45-1.13,10.8v84.3c0,4.25.41,7.27,1.22,9.05.81,1.78,1.95,3.08,3.42,3.89,1.47.81,4.11,1.22,7.92,1.22h3.84v7.88H0v-7.88h4.13c3.69,0,6.3-.42,7.83-1.27,1.53-.84,2.64-2.06,3.33-3.66.69-1.59,1.03-4.67,1.03-9.24V29.26c0-4.84-.34-8.1-1.03-9.77-.69-1.67-1.8-2.89-3.33-3.68-1.53-.79-4.14-1.18-7.83-1.18H0v-7.88Z"/>
  <path class="cls-1" d="M64.52,60.48v-7.78c4.55-.37,8.6-1.13,12.15-2.27,3.55-1.14,7.6-3.01,12.15-5.61h7.01v17.72c4.44-5.44,9.6-9.75,15.47-12.94,5.88-3.19,11.16-4.78,15.85-4.78s8.28,1.09,10.97,3.28c2.69,2.19,4.03,4.85,4.03,7.97,0,2.25-.89,4.24-2.67,5.95-1.78,1.72-3.92,2.58-6.42,2.58-1.12,0-2.1-.16-2.91-.47-.81-.31-2-1-3.56-2.06-3.44-2.25-6.31-3.38-8.63-3.38-3.13,0-6.56,1.31-10.31,3.94-4.75,3.38-8.47,6.69-11.16,9.94v43.23c0,3.75.2,6.3.61,7.64.41,1.34,1.08,2.5,2.02,3.47.94.97,2.09,1.67,3.47,2.11,1.37.44,3.78.66,7.22.66h3.09v7.88h-48.48v-7.88h4.03c3.81,0,6.31-.34,7.5-1.03,1.62-.94,2.83-2.23,3.61-3.89.78-1.66,1.17-4.64,1.17-8.96v-55.33h-16.22Z"/>
  <path class="cls-1" d="M216.6,83.27l.02-10.22c0-6.94-1.94-11.89-5.83-14.86-3.88-2.97-9.37-4.45-16.45-4.45-3.51,0-6.58.42-9.21,1.27-2.63.84-4.75,2-6.34,3.47-1.6,1.47-2.77,3.14-3.52,5.02-.31.69-1.06,3.34-2.25,7.97-1.44,5.63-4.35,8.44-8.72,8.44-2.5,0-4.52-.83-6.05-2.48-1.53-1.66-2.3-3.89-2.3-6.71,0-4.13,1.53-8.17,4.6-12.14,3.06-3.97,7.74-7.25,14.02-9.85,6.28-2.59,13.71-3.89,22.27-3.89,8,0,14.85,1.23,20.54,3.7,5.69,2.47,9.88,6.01,12.57,10.63,1.88,3.19,2.81,8.99,2.81,17.42v36.06c0,5.12.16,8.46.47,10.02.69,2.69,1.89,4.7,3.61,6.04,1.72,1.34,3.95,2.01,6.71,2.01s6.31-.66,10.31-1.98v8.17c-5.19,1.5-9.85,2.25-13.97,2.25-4.44,0-8.17-.63-11.21-1.88-3.03-1.25-5.52-3.08-7.46-5.49-1.94-2.41-3.19-5.27-3.75-8.58-7.5,5.88-14.29,10-20.35,12.38-6.06,2.38-12.19,3.56-18.38,3.56-8.63,0-15.63-2.34-21.01-7.03-5.38-4.69-8.06-10.19-8.06-16.5,0-3.81.98-7.44,2.96-10.88,1.97-3.44,4.98-6.47,9.01-9.1,4.04-2.63,10.37-4.94,19.01-6.94,8.64-2,20.62-3.81,35.96-5.44ZM216.55,91.43c-14.51,2.13-23.49,3.6-26.93,4.41-6.82,1.56-11.7,3.28-14.64,5.16-2.94,1.88-5.04,3.89-6.29,6.05-1.25,2.16-1.88,4.45-1.88,6.89s.7,4.8,2.11,7.08c1.41,2.28,3.39,4.08,5.96,5.39,2.56,1.31,5.29,1.97,8.16,1.97,4.06,0,8.66-.97,13.79-2.91,5.13-1.94,11.7-5.72,19.71-11.35v-22.69Z"/>
  <path class="cls-1" d="M259.1,15.66v-7.78c7.98-.62,16.24-3.25,24.78-7.88h7.2v93.57l34.5-27.36c5.5-4.38,8.25-7.29,8.25-8.73,0-.88-.59-1.56-1.78-2.06-.75-.31-2.59-.47-5.53-.47h-4.97v-7.88h47.58v7.88c-5.31,0-9.57.55-12.75,1.64-3.19,1.09-6.88,3.24-11.07,6.42l-27.11,20.87,32,34.93c3.06,3.38,5.56,5.75,7.5,7.13,1.94,1.38,3.88,2.33,5.81,2.86,1.94.53,4.97.83,9.1.89v7.88h-49.92v-7.88h3.84c3.81,0,6.22-.3,7.22-.89,1-.59,1.5-1.39,1.5-2.39s-.94-2.44-2.81-4.32c-.31-.31-.66-.69-1.03-1.13l-24.95-28.59-15.39,11.63v12.28c0,4.56.34,7.56,1.03,9,.69,1.44,1.77,2.53,3.24,3.28,1.47.75,4.3,1.13,8.49,1.13h3.47v7.88h-48.2v-7.88c5.44-.06,8.78-.28,10.03-.66,2.19-.69,3.77-1.91,4.74-3.66.97-1.75,1.45-5.13,1.45-10.13V15.66h-16.22Z"/>
  <path class="cls-1" d="M378.57,15.66v-7.78c8.5-.62,16.79-3.25,24.85-7.88h6.94v115.44c0,4.88.31,7.94.94,9.19.81,1.75,2,3.03,3.56,3.84,1.56.81,4.56,1.22,9,1.22h3v7.88h-48.29v-7.88h4.88c3.06,0,5.36-.47,6.89-1.4,1.53-.93,2.62-2.21,3.28-3.82.66-1.61.99-4.85.99-9.69V15.66h-16.04Z"/>
  <path class="cls-1" d="M436.42,60.48v-7.78c5.19-.62,9.55-1.48,13.08-2.59,3.53-1.11,7.55-2.87,12.05-5.28h6.85v75.21c0,2.63.38,4.59,1.12,5.91s1.8,2.27,3.14,2.86c1.34.6,3.8.89,7.36.89h4.41v7.88h-48.01v-7.88h3.84c4.19,0,7-.38,8.44-1.13,1.44-.75,2.45-1.81,3.05-3.19.59-1.37.89-4.6.89-9.66v-55.23h-16.22ZM460.24,2.53c3,0,5.56,1.05,7.69,3.14,2.12,2.1,3.19,4.64,3.19,7.64s-1.06,5.56-3.19,7.69c-2.13,2.13-4.69,3.19-7.69,3.19s-5.57-1.06-7.69-3.19c-2.13-2.12-3.19-4.69-3.19-7.69s1.06-5.55,3.19-7.64c2.12-2.09,4.69-3.14,7.69-3.14Z"/>
  <path class="cls-1" d="M558.24,47.07h6.58l8.42,28.69-8.44,2.81c-3.38-7.69-8.11-13.74-14.21-18.15-6.09-4.41-12.27-6.61-18.52-6.61-4.81,0-8.72,1.17-11.72,3.52-3,2.34-4.5,5.05-4.5,8.11,0,2.88,1.09,5.34,3.28,7.41,2.12,2.13,6.91,4.53,14.35,7.22l18.29,6.47c10.31,3.69,17.35,7.63,21.1,11.82,3.69,4.25,5.53,9.06,5.53,14.44,0,4.56-1.38,8.96-4.13,13.18s-6.74,7.58-11.96,10.08c-5.22,2.5-11.21,3.75-17.96,3.75-10.5,0-19.5-3-27.01-9.02l-1.97,6.77h-6.68l-11.7-30.66,8.44-3.38c5.7,9,11.08,15.38,16.16,19.13,7.08,5.31,14.71,7.97,22.92,7.97,5.45,0,9.92-1.45,13.43-4.36,3.51-2.91,5.26-6.14,5.26-9.71,0-2.94-1.09-5.63-3.28-8.06-2.25-2.38-6.56-4.69-12.94-6.94l-21.66-7.88c-9.32-3.38-15.79-7.06-19.41-11.07-3.63-4-5.44-8.59-5.44-13.78,0-6.31,2.95-11.89,8.86-16.74,5.91-4.84,13.42-7.27,22.55-7.27,4.75,0,9,.61,12.75,1.83,3.75,1.22,7.44,3.24,11.07,6.06l2.53-5.65Z"/>
  <path class="cls-1" d="M119.09,307.55c3.31,0,6.11,1.14,8.39,3.42,2.28,2.28,3.42,5.05,3.42,8.3s-1.16,6.02-3.47,8.3c-2.31,2.28-5.1,3.42-8.35,3.42s-5.94-1.14-8.25-3.42c-2.31-2.28-3.47-5.05-3.47-8.3s1.14-6.02,3.42-8.3,5.05-3.42,8.3-3.42Z"/>
  <path class="cls-1" d="M207.56,198.59h15.34l40.71,109.36c2,5.49,4.02,9.13,6.05,10.91,2.03,1.78,4.77,2.67,8.21,2.67h2.06v7.88h-46.55v-7.88c1.5-.12,2.97-.19,4.41-.19,3,0,4.97-.31,5.91-.94,1.81-1.19,2.72-2.69,2.72-4.5,0-1.31-.88-4.53-2.63-9.66l-8.66-25.32h-47.39l-10.2,28.32c-1.06,2.94-1.59,4.97-1.59,6.09,0,1.25.33,2.34.98,3.28s1.55,1.64,2.67,2.11c1.13.47,2.94.7,5.44.7,1.69,0,3.06.03,4.13.09v7.88h-39.1v-7.88c3.62,0,6.24-.36,7.83-1.08s2.98-1.88,4.17-3.47c1.19-1.59,2.75-4.95,4.69-10.08l40.81-108.31ZM191.05,271.73h40.4l-20.13-56.26-20.27,56.26Z"/>
  <path class="cls-1" d="M287.32,252.32v-7.78c4.55-.37,8.6-1.13,12.15-2.27,3.55-1.14,7.6-3.01,12.15-5.61h7.01v17.72c4.44-5.44,9.6-9.75,15.47-12.94,5.88-3.19,11.16-4.78,15.85-4.78s8.28,1.09,10.97,3.28c2.69,2.19,4.03,4.85,4.03,7.97,0,2.25-.89,4.24-2.67,5.95-1.78,1.72-3.92,2.58-6.42,2.58-1.13,0-2.1-.16-2.91-.47-.81-.31-2-1-3.56-2.06-3.44-2.25-6.32-3.38-8.63-3.38-3.13,0-6.56,1.31-10.32,3.94-4.75,3.38-8.47,6.69-11.16,9.94v43.23c0,3.75.2,6.3.61,7.64.41,1.35,1.08,2.5,2.02,3.47.94.97,2.09,1.67,3.47,2.11,1.37.44,3.78.66,7.22.66h3.09v7.88h-48.48v-7.88h4.03c3.81,0,6.31-.34,7.5-1.03,1.62-.94,2.83-2.23,3.61-3.89.78-1.66,1.17-4.64,1.17-8.96v-55.33h-16.22Z"/>
  <path class="cls-1" d="M396.66,207.03h6.66v31.88h27.85v9.38h-27.85v56.55c0,4.81.42,8.25,1.27,10.31.84,2.06,2.28,3.75,4.31,5.06,2.03,1.31,4.3,1.97,6.8,1.97,5.94,0,12.5-2.66,19.69-7.97v9.1c-8.21,5.57-16.5,8.35-24.9,8.35-4.76,0-9.07-1.06-12.92-3.19-3.85-2.12-6.48-4.63-7.89-7.5-1.41-2.88-2.11-7.88-2.11-15v-57.67h-16.41v-7.88c5.27-1.19,9.52-3.03,12.75-5.53,3.23-2.5,5.85-5.75,7.86-9.75,2.01-4,3.64-10.03,4.9-18.1Z"/>
</svg>